<?xml version="1.0" encoding="iso-8859-1"?>
<!-- Generator: Adobe Illustrator 16.0.0, SVG Export Plug-In . SVG Version: 6.00 Build 0)  -->
<!DOCTYPE svg PUBLIC "-//W3C//DTD SVG 1.1//EN" "http://www.w3.org/Graphics/SVG/1.1/DTD/svg11.dtd">
<svg version="1.1" id="Capa_1" xmlns="http://www.w3.org/2000/svg" xmlns:xlink="http://www.w3.org/1999/xlink" x="0px" y="0px"
	 width="567.496px" height="567.496px" viewBox="0 0 567.496 567.496" style="enable-background:new 0 0 567.496 567.496;"
	 xml:space="preserve">
<g>
	<g>
		<path d="M338.525,233.65c29.28,0,52.909-23.801,52.909-52.977c0-29.347-23.639-52.976-52.909-52.976
			c-9.018,0-17.509,2.266-24.949,6.254v-0.708c28.248-8.262,48.894-34.32,48.894-65.235C362.47,30.438,332.022,0,294.451,0
			c-37.57,0-68.017,30.447-68.017,68.009c0,30.925,20.646,56.973,48.893,65.235v108.582h-6.139
			c-10.557,0-22.883,7.698-27.502,17.193l-63.868,170.365c-4.619,9.496,0.182,17.193,10.748,17.193h74.54
			c0.316,0,0.631-0.066,0.947-0.086h33.621l-41.663,86.741c-5.718,11.896-0.698,26.183,11.207,31.901
			c3.337,1.597,6.866,2.361,10.328,2.361c8.912,0,17.452-5.001,21.573-13.569l58.111-120.994c3.557-7.401,3.05-16.122-1.319-23.074
			c-4.38-6.961-12.021-11.179-20.234-11.179h-35.534l46.396-139.383c4.294-9.648-0.784-17.471-11.351-17.471h-21.62v-14.458
			C321.017,231.365,329.508,233.65,338.525,233.65z M264.129,68.009c0-16.744,13.569-30.313,30.313-30.313
			c16.743,0,30.312,13.569,30.312,30.313c0,16.744-13.569,30.313-30.312,30.313C277.699,98.322,264.129,84.752,264.129,68.009z"/>
		<circle cx="294.442" cy="68.009" r="15.443"/>
	</g>
</g>
<g>
</g>
<g>
</g>
<g>
</g>
<g>
</g>
<g>
</g>
<g>
</g>
<g>
</g>
<g>
</g>
<g>
</g>
<g>
</g>
<g>
</g>
<g>
</g>
<g>
</g>
<g>
</g>
<g>
</g>
</svg>
