<?xml version="1.0" encoding="iso-8859-1"?>
<!-- Generator: Adobe Illustrator 18.1.1, SVG Export Plug-In . SVG Version: 6.00 Build 0)  -->
<svg version="1.1" id="Capa_1" xmlns="http://www.w3.org/2000/svg" xmlns:xlink="http://www.w3.org/1999/xlink" x="0px" y="0px"
	 viewBox="0 0 548.952 548.952" style="enable-background:new 0 0 548.952 548.952;" xml:space="preserve">
<g>
	<path style="fill:#010002;" d="M501.217,45.36h-11.934h-47.735v65.164H137.137l-1.516-1.516l-1.516,1.516h-26.702V50.856H59.669
		H47.735H0v127.291h47.735h11.934h47.735v-55.689h24.798l99.509,99.515v171.231h-77.569v110.387h41.768v-57.431h157.376v57.431
		h41.768V393.205h-76.078V222.481L419,122.458h22.549v50.199h47.735h11.934h47.735V45.36H501.217z M149.07,122.458h94.181
		c-14.917,10.353-24.721,27.585-24.721,47.079c0,12.322,3.986,23.677,10.645,33.021L149.07,122.458z M323.792,200.785
		c5.895-8.986,9.338-19.715,9.338-31.248c0-19.494-9.804-36.726-24.721-47.079h93.716L323.792,200.785z"/>
</g>
<g>
</g>
<g>
</g>
<g>
</g>
<g>
</g>
<g>
</g>
<g>
</g>
<g>
</g>
<g>
</g>
<g>
</g>
<g>
</g>
<g>
</g>
<g>
</g>
<g>
</g>
<g>
</g>
<g>
</g>
</svg>
