<svg width="173" height="57" viewBox="0 0 173 57" fill="none" xmlns="http://www.w3.org/2000/svg">
<g id="LOGO">
<g id="power">
<path id="second" d="M112.243 41.1379C112.335 41.1379 112.429 41.1241 112.519 41.0967C112.769 41.02 112.976 40.8431 113.09 40.608C114.706 37.2812 115.657 33.7171 115.919 30.015C115.938 29.7544 115.847 29.4978 115.669 29.3068C115.491 29.1157 115.242 29.0071 114.98 29.0071H106.859C106.375 29.0071 105.97 29.3732 105.922 29.8544C105.727 31.787 105.194 33.7059 104.292 35.7198C104.094 36.1602 104.262 36.6788 104.68 36.9201L111.772 41.0121C111.917 41.0953 112.079 41.1379 112.243 41.1379Z" fill="#FFB77D"/>
<path id="Vector" d="M102.521 52.0832C102.59 52.099 102.66 52.107 102.731 52.107C102.918 52.107 103.103 52.0511 103.26 51.9441C106.309 49.8711 108.912 47.2598 110.998 44.1825C111.145 43.9661 111.195 43.6984 111.136 43.4437C111.077 43.189 110.915 42.9698 110.689 42.8392L103.652 38.7783C103.504 38.693 103.342 38.6522 103.182 38.6522C102.887 38.6522 102.598 38.791 102.415 39.047C101.263 40.6615 99.8149 42.1116 98.111 43.3569C97.7226 43.6408 97.6107 44.171 97.8508 44.5873L101.916 51.6362C102.046 51.8625 102.266 52.0247 102.521 52.0832Z" fill="#FEFCFB"/>
<path id="first" d="M89.0168 56.8568C89.0389 56.8568 89.0611 56.8562 89.0835 56.8547C92.7936 56.5923 96.3581 55.6391 99.6777 54.0206C99.9124 53.906 100.089 53.6995 100.165 53.4498C100.242 53.2001 100.211 52.9299 100.08 52.704L96.0274 45.6825C95.8543 45.3824 95.5386 45.2114 95.2116 45.2114C95.0804 45.2114 94.9476 45.2391 94.8216 45.2965C93.009 46.1232 91.024 46.6511 88.9216 46.8652C88.441 46.9141 88.0756 47.3186 88.0756 47.8017V55.9158C88.0756 56.1769 88.1842 56.4264 88.3752 56.6046C88.5499 56.7671 88.7792 56.8568 89.0168 56.8568Z" fill="#FFB77D"/>
<path id="Vector_2" d="M84.9404 56.8509C84.9627 56.8525 84.9846 56.853 85.0069 56.853C85.244 56.853 85.4738 56.7633 85.6486 56.6005C85.8396 56.4226 85.9482 56.173 85.9482 55.9117V47.7898C85.9482 47.3065 85.5823 46.9018 85.1016 46.8531C80.4132 46.379 76.0759 44.2059 72.8891 40.7351C69.6739 37.2336 67.9033 32.6906 67.9033 27.9429C67.9033 21.8713 70.8858 16.09 75.8821 12.4776C76.2733 12.1949 76.387 11.662 76.1457 11.2438L72.0921 4.22678C71.9612 4.00026 71.7422 3.83864 71.4875 3.77999C71.4179 3.76399 71.3472 3.7562 71.277 3.7562C71.0899 3.7562 70.9057 3.81178 70.7485 3.91842C62.7659 9.33413 58 18.3155 58 27.9433C58 35.3278 60.7798 42.3603 65.8273 47.745C70.8473 53.1 77.635 56.3341 84.9404 56.8509Z" fill="#FEFCFB"/>
<path id="Vector_3" d="M104.389 20.1226C105.256 22.0192 105.798 24.0071 106 26.0313C106.048 26.5127 106.453 26.8795 106.937 26.8795H114.957C115.218 26.8795 115.467 26.7709 115.646 26.5795C115.824 26.3882 115.914 26.1314 115.896 25.8706C115.628 22.1475 114.677 18.5871 113.069 15.2889C112.955 15.0542 112.748 14.8775 112.499 14.8013C112.408 14.7737 112.316 14.7602 112.223 14.7602C112.06 14.7602 111.897 14.803 111.753 14.8863L104.774 18.9157C104.354 19.1586 104.187 19.6814 104.389 20.1226Z" fill="#FEFCFB"/>
<path id="three" d="M103.279 3.91864C103.122 3.81189 102.938 3.7561 102.751 3.7561C102.68 3.7561 102.61 3.7639 102.54 3.77989C102.285 3.83824 102.066 4.00017 101.936 4.22669L97.8822 11.2482C97.641 11.6665 97.7548 12.1992 98.1466 12.482C99.7753 13.6581 101.229 15.1173 102.467 16.8189C102.65 17.0706 102.937 17.2065 103.229 17.2065C103.39 17.2065 103.552 17.1657 103.699 17.0803L110.705 13.039C110.931 12.9081 111.094 12.6891 111.152 12.434C111.21 12.1789 111.16 11.9113 111.013 11.6948C108.902 8.58596 106.3 5.96958 103.279 3.91864Z" fill="#FFB77D"/>
<path id="middle" d="M92 39.5123V1.48774C92 0.665917 91.5745 0 91.0494 0H82.9506C82.4256 0 82 0.665917 82 1.48774V39.5123C82 40.3339 82.4256 41 82.9506 41H91.049C91.5741 41 92 40.3341 92 39.5123Z" fill="#FFB77D"/>
</g>
<path id="F" d="M17.64 9.96V23.28H40.968V32.64H17.64V51H5.976V0.599997H44.064V9.96H17.64Z" fill="#FEFCFB"/>
<path id="T" d="M144.416 12.104H128.288V2.6H172.208V12.104H156.08V53H144.416V12.104Z" fill="#FEFCFB"/>
</g>
</svg>
